<svg width="11" height="21" viewBox="0 0 11 21" fill="none" xmlns="http://www.w3.org/2000/svg">
<path d="M6.76781 20.2948H4.38686C3.77636 20.2948 3.28796 19.7759 3.28796 19.1349V11.8699H1.33436C0.723858 11.8699 0.235458 11.351 0.235458 10.71V8.60375C0.235458 7.96272 0.723858 7.4438 1.33436 7.4438H3.22691V5.52072C3.22691 2.74295 4.87526 0.88092 7.31726 0.88092H9.14876C9.75926 0.88092 10.2477 1.39985 10.2477 2.04087V4.5134C10.2477 5.15442 9.75926 5.67335 9.14876 5.67335H7.83619V7.41327H9.57611C9.94241 7.4438 10.2477 7.59642 10.4613 7.84062C10.675 8.11535 10.7666 8.48165 10.7055 8.81742L10.3392 10.8931C10.2782 11.4426 9.82031 11.8394 9.24034 11.8394H7.83619V19.1349C7.83619 19.7454 7.34779 20.2948 6.76781 20.2948ZM3.80689 10.8016C4.11214 10.8016 4.35634 11.0458 4.35634 11.351V19.1349C4.35634 19.1959 4.38686 19.2265 4.38686 19.2265H6.76781C6.76781 19.2265 6.79834 19.1959 6.79834 19.1349V11.29C6.79834 10.9847 7.04254 10.7405 7.34779 10.7405H9.27086C9.27086 10.7405 9.30139 10.7405 9.30139 10.71V10.6795L9.66769 8.63427C9.66769 8.57322 9.66769 8.5427 9.63716 8.51217C9.63716 8.51217 9.60664 8.48165 9.57611 8.48165H7.31726C7.01201 8.48165 6.76781 8.23745 6.76781 7.9322V5.76492C6.76781 5.21547 6.85939 4.60497 7.89724 4.60497H9.14876C9.14876 4.60497 9.17929 4.57445 9.17929 4.5134V2.0714C9.17929 2.01035 9.14876 1.97982 9.14876 1.97982H7.34779C5.51629 1.97982 4.32581 3.38397 4.32581 5.55125V8.02377C4.32581 8.32902 4.08161 8.57322 3.77636 8.57322H1.33436C1.33436 8.57322 1.30383 8.60375 1.30383 8.6648V10.771C1.30383 10.8321 1.33436 10.8626 1.33436 10.8626L3.80689 10.8016Z" fill="black"/>
</svg>
