<svg width="19" height="19" viewBox="0 0 19 19" fill="none" xmlns="http://www.w3.org/2000/svg">
<path fill-rule="evenodd" clip-rule="evenodd" d="M9.5 0C6.9198 0 6.5968 0.0113999 5.58315 0.0569999C4.57235 0.10355 3.8817 0.2641 3.2775 0.49875C2.64336 0.737053 2.06887 1.11086 1.5941 1.5941C1.11089 2.06888 0.73708 2.64338 0.49875 3.2775C0.2641 3.8817 0.10355 4.57235 0.0569999 5.58315C0.0104499 6.5968 0 6.9198 0 9.5C0 12.0802 0.0104499 12.4032 0.0569999 13.4168C0.10355 14.4276 0.2641 15.1183 0.49875 15.7225C0.737107 16.3566 1.11091 16.9311 1.5941 17.4059C2.0689 17.8891 2.64339 18.2629 3.2775 18.5012C3.8817 18.7359 4.57235 18.8965 5.58315 18.943C6.5968 18.9886 6.9198 19 9.5 19C12.0802 19 12.4032 18.9886 13.4168 18.943C14.4276 18.8965 15.1183 18.7359 15.7225 18.5012C16.3566 18.2629 16.9311 17.8891 17.4059 17.4059C17.8891 16.9311 18.2629 16.3566 18.5012 15.7225C18.7359 15.1183 18.8965 14.4276 18.943 13.4168C18.9886 12.4032 19 12.0802 19 9.5C19 6.9198 18.9886 6.5968 18.943 5.58315C18.8965 4.57235 18.7359 3.8817 18.5012 3.2775C18.2629 2.64338 17.8891 2.06888 17.4059 1.5941C16.9311 1.11086 16.3566 0.737053 15.7225 0.49875C15.1183 0.2641 14.4276 0.10355 13.4168 0.0569999C12.4032 0.0113999 12.0802 0 9.5 0ZM9.5 1.7119C12.0365 1.7119 12.3367 1.7214 13.338 1.767C14.2652 1.80975 14.7678 1.96365 15.1031 2.0938C15.5458 2.2667 15.8631 2.47285 16.1956 2.8044C16.5281 3.1369 16.7333 3.4542 16.9062 3.8969C17.0354 4.23225 17.1912 4.7348 17.233 5.66105C17.2786 6.6633 17.2881 6.96255 17.2881 9.5C17.2881 12.0365 17.2786 12.3367 17.233 13.338C17.1903 14.2652 17.0354 14.7678 16.9062 15.1031C16.7539 15.5158 16.5111 15.8891 16.1956 16.1956C15.8631 16.5281 15.5458 16.7333 15.1031 16.9062C14.7678 17.0354 14.2652 17.1912 13.339 17.233C12.3377 17.2786 12.0374 17.2881 9.5 17.2881C6.9635 17.2881 6.66235 17.2786 5.662 17.233C4.7348 17.1903 4.23225 17.0354 3.8969 16.9062C3.48421 16.754 3.11089 16.5111 2.8044 16.1956C2.48887 15.8891 2.24605 15.5158 2.0938 15.1031C1.96365 14.7678 1.8088 14.2652 1.767 13.339C1.7214 12.3367 1.7119 12.0374 1.7119 9.5C1.7119 6.9635 1.7214 6.6633 1.767 5.662C1.80975 4.7348 1.96365 4.23225 2.0938 3.8969C2.2667 3.4542 2.47285 3.1369 2.8044 2.8044C3.1369 2.4719 3.4542 2.2667 3.8969 2.0938C4.23225 1.96365 4.7348 1.8088 5.66105 1.767C6.6633 1.7214 6.96255 1.7119 9.5 1.7119ZM9.5 12.6664C8.66023 12.6664 7.85486 12.3328 7.26105 11.7389C6.66725 11.1451 6.33365 10.3398 6.33365 9.5C6.33365 8.66023 6.66725 7.85486 7.26105 7.26105C7.85486 6.66725 8.66023 6.33365 9.5 6.33365C10.3398 6.33365 11.1451 6.66725 11.7389 7.26105C12.3328 7.85486 12.6664 8.66023 12.6664 9.5C12.6664 10.3398 12.3328 11.1451 11.7389 11.7389C11.1451 12.3328 10.3398 12.6664 9.5 12.6664ZM9.5 4.62175C8.85938 4.62175 8.22503 4.74793 7.63317 4.99308C7.04132 5.23824 6.50354 5.59757 6.05056 6.05056C5.59757 6.50354 5.23824 7.04132 4.99308 7.63317C4.74793 8.22503 4.62175 8.85938 4.62175 9.5C4.62175 10.1406 4.74793 10.775 4.99308 11.3668C5.23824 11.9587 5.59757 12.4965 6.05056 12.9494C6.50354 13.4024 7.04132 13.7618 7.63317 14.0069C8.22503 14.2521 8.85938 14.3783 9.5 14.3783C10.7938 14.3783 12.0346 13.8643 12.9494 12.9494C13.8643 12.0346 14.3783 10.7938 14.3783 9.5C14.3783 8.20621 13.8643 6.96541 12.9494 6.05056C12.0346 5.13571 10.7938 4.62175 9.5 4.62175ZM15.7111 4.4289C15.7111 4.57861 15.6816 4.72685 15.6243 4.86516C15.567 5.00347 15.4831 5.12914 15.3772 5.235C15.2713 5.34086 15.1457 5.42483 15.0074 5.48212C14.869 5.53941 14.7208 5.5689 14.5711 5.5689C14.4214 5.5689 14.2732 5.53941 14.1348 5.48212C13.9965 5.42483 13.8709 5.34086 13.765 5.235C13.6591 5.12914 13.5752 5.00347 13.5179 4.86516C13.4606 4.72685 13.4311 4.57861 13.4311 4.4289C13.4311 4.12655 13.5512 3.83659 13.765 3.6228C13.9788 3.40901 14.2688 3.2889 14.5711 3.2889C14.8734 3.2889 15.1634 3.40901 15.3772 3.6228C15.591 3.83659 15.7111 4.12655 15.7111 4.4289Z" fill="black"/>
</svg>
