<svg width="26" height="26" viewBox="0 0 26 26" fill="none" xmlns="http://www.w3.org/2000/svg">
<circle cx="13" cy="13" r="12" stroke="black" stroke-width="1.3"/>
<path d="M5.80002 12.3356C5.80071 11.504 5.94074 10.7219 6.22012 9.9893C6.48569 9.27803 6.88136 8.62543 7.3858 8.06663C7.88848 7.51456 8.46389 7.03728 9.09533 6.64864C9.74299 6.24638 10.4443 5.94302 11.1771 5.74812C11.9188 5.54865 12.6825 5.44789 13.4492 5.4483C14.6333 5.4483 15.7362 5.70473 16.7581 6.21758C17.7675 6.71946 18.6264 7.49128 19.2444 8.45181C19.8822 9.42843 20.2007 10.5324 20.2 11.7637C20.2 12.502 20.1283 13.2243 19.9848 13.9307C19.8426 14.6365 19.617 15.322 19.313 15.9718C19.0231 16.6007 18.6439 17.1821 18.1879 17.697C17.73 18.2043 17.1749 18.609 16.5574 18.8856C15.8869 19.1858 15.1623 19.3374 14.4309 19.3306C13.9213 19.3306 13.4156 19.2075 12.9137 18.9614C12.4125 18.7167 12.0534 18.3785 11.8364 17.9467C11.7615 18.2462 11.6555 18.6794 11.5182 19.2463C11.3837 19.8118 11.2964 20.177 11.2562 20.342C11.2146 20.5071 11.1376 20.7799 11.0253 21.1604C10.9499 21.4416 10.8522 21.7161 10.7331 21.9809L10.3754 22.7C10.2207 23.0086 10.0477 23.3072 9.85755 23.5941C9.66968 23.8744 9.43676 24.2069 9.15877 24.5918L9.00383 24.6483L8.90088 24.5331C8.78927 23.3238 8.73312 22.6001 8.73242 22.3618C8.73242 21.6548 8.81388 20.8606 8.97679 19.9793C9.13693 19.0987 9.3865 17.9929 9.72549 16.6621C10.0631 15.3319 10.2576 14.5509 10.3089 14.319C10.0704 13.8204 9.95079 13.1706 9.9501 12.3697C9.9501 11.7317 10.1449 11.1313 10.5345 10.5687C10.9248 10.0074 11.4194 9.72683 12.0184 9.72683C12.4766 9.72683 12.8329 9.88296 13.0874 10.1952C13.3418 10.5061 13.4686 10.9005 13.4679 11.3785C13.4679 11.8864 13.303 12.6211 12.973 13.5828C12.643 14.5445 12.478 15.2637 12.478 15.7402C12.478 16.2236 12.6465 16.6279 12.9834 16.9448C13.3159 17.2619 13.7556 17.4337 14.2094 17.4239C14.6205 17.4239 15.0031 17.3275 15.3574 17.1348C15.7064 16.9473 16.0086 16.6796 16.2402 16.3527C16.7453 15.6427 17.1051 14.8352 17.2978 13.9787C17.399 13.5277 17.4738 13.1009 17.5224 12.6983C17.5723 12.2943 17.5965 11.9113 17.5952 11.5492C17.5945 10.2191 17.1844 9.18232 16.365 8.439C15.5421 7.69711 14.4718 7.32652 13.1539 7.32723C11.6544 7.32723 10.4028 7.8255 9.39897 8.82204C8.39378 9.81645 7.89048 11.0804 7.8891 12.614C7.88979 12.9519 7.93797 13.2787 8.03364 13.5946C8.12584 13.9097 8.2267 14.1601 8.33624 14.3457C8.44438 14.5282 8.54629 14.7063 8.63884 14.8707C8.73312 15.035 8.7806 15.1523 8.7813 15.2228C8.7813 15.4383 8.72584 15.7192 8.61492 16.0657C8.50053 16.4121 8.36189 16.5853 8.19897 16.5853C8.18303 16.5853 8.11891 16.5732 8.0066 16.549C7.61745 16.4303 7.26609 16.2075 6.98858 15.9035C6.69433 15.5883 6.4617 15.2181 6.30331 14.813C6.14613 14.409 6.02365 13.9917 5.93728 13.5658C5.84514 13.1625 5.79908 12.7497 5.80002 12.3356Z" fill="black"/>
</svg>
