<svg width="18" height="21" viewBox="0 0 18 21" fill="none" xmlns="http://www.w3.org/2000/svg">
<path d="M9.15857 20.0862H9.15259C6.09147 20.0662 3.73814 19.082 2.15672 17.162C0.750534 15.4528 0.023935 13.0745 0 10.0945V10.0803C0.0256447 7.09785 0.751389 4.72201 2.15843 3.01201C3.73814 1.09035 6.09318 0.106182 9.15344 0.0861816H9.16541C11.5128 0.102848 13.4763 0.690348 15.0004 1.83451C16.434 2.90951 17.4435 4.44285 18 6.39035L16.2562 6.86451C15.3124 3.56451 12.9241 1.87785 9.15771 1.85201C6.67018 1.87035 4.78957 2.63201 3.56717 4.11618C2.42342 5.50618 1.83274 7.51451 1.80966 10.0862C1.83274 12.6578 2.42342 14.6662 3.56803 16.0562C4.79043 17.542 6.67189 18.3045 9.15857 18.3203C11.4008 18.3037 12.8839 17.7945 14.1165 16.6162C15.5244 15.272 15.4996 13.622 15.0483 12.6178C14.7833 12.0262 14.302 11.5345 13.6515 11.1595C13.4874 12.2862 13.1198 13.1978 12.5539 13.8862C11.7966 14.8045 10.7246 15.3062 9.36544 15.3778C8.33794 15.432 7.3472 15.1962 6.57957 14.7103C5.67089 14.1362 5.13919 13.2603 5.08192 12.2403C5.02636 11.2487 5.43069 10.3362 6.21883 9.67202C6.97108 9.03868 8.0302 8.66618 9.28166 8.59618C10.144 8.54466 11.0096 8.58434 11.8632 8.71451C11.7555 8.09618 11.5427 7.60452 11.2221 7.25035C10.7836 6.76201 10.104 6.51451 9.20559 6.50868H9.18079C8.45932 6.50868 7.47799 6.70201 6.85482 7.60868L5.3529 6.62535C6.19063 5.41368 7.54808 4.74535 9.18079 4.74535H9.21841C11.9487 4.76201 13.5754 6.39118 13.7379 9.23535C13.8307 9.27424 13.9222 9.31368 14.0123 9.35368C15.2859 9.93701 16.2177 10.8212 16.7084 11.912C17.3897 13.4287 17.4529 15.9037 15.3851 17.877C13.8037 19.3853 11.8855 20.067 9.16455 20.0853L9.15857 20.0862ZM10.016 10.3445C9.80966 10.3445 9.59909 10.3503 9.38424 10.362C7.81479 10.4478 6.83687 11.1503 6.89158 12.1478C6.94885 13.1945 8.13278 13.6803 9.27141 13.6203C10.3177 13.5662 11.6803 13.1678 11.9094 10.5287C11.2867 10.4021 10.652 10.3403 10.016 10.3445Z" fill="black"/>
</svg>
