<svg width="18" height="21" viewBox="0 0 18 21" fill="none" xmlns="http://www.w3.org/2000/svg">
<path d="M17.3077 5.27137C16.2064 5.27014 15.1505 4.8015 14.3717 3.96827C13.593 3.13504 13.155 2.00529 13.1538 0.826922C13.1538 0.630466 13.0809 0.442055 12.9511 0.30314C12.8212 0.164224 12.6452 0.0861816 12.4615 0.0861816H9C8.81639 0.0861816 8.6403 0.164224 8.51046 0.30314C8.38063 0.442055 8.30769 0.630466 8.30769 0.826922V13.0491C8.30755 13.3805 8.22431 13.7058 8.06665 13.991C7.90899 14.2762 7.68268 14.511 7.41135 14.6707C7.14001 14.8305 6.83358 14.9094 6.52402 14.8993C6.21445 14.8892 5.9131 14.7903 5.6514 14.6131C5.38969 14.4359 5.17722 14.1868 5.03614 13.8918C4.89507 13.5968 4.83056 13.2667 4.84934 12.936C4.86812 12.6052 4.96952 12.2859 5.14294 12.0113C5.31636 11.7368 5.55546 11.5171 5.83529 11.3751C5.95366 11.315 6.05366 11.2201 6.12367 11.1016C6.19367 10.9831 6.23081 10.8458 6.23077 10.7056V6.75285C6.23081 6.64457 6.20867 6.5376 6.1659 6.43947C6.12313 6.34133 6.06077 6.25442 5.98322 6.18486C5.90567 6.1153 5.8148 6.06478 5.71703 6.03685C5.61925 6.00892 5.51694 6.00427 5.41731 6.02322C2.32875 6.61211 0 9.63248 0 13.0491C0 14.9155 0.692924 16.7054 1.92634 18.0251C3.15975 19.3448 4.83261 20.0862 6.57692 20.0862C8.32123 20.0862 9.9941 19.3448 11.2275 18.0251C12.4609 16.7054 13.1538 14.9155 13.1538 13.0491V9.37229C14.436 10.0881 15.8615 10.4601 17.3077 10.4566C17.4913 10.4566 17.6674 10.3785 17.7972 10.2396C17.9271 10.1007 18 9.91227 18 9.71581V6.01211C18 5.81565 17.9271 5.62724 17.7972 5.48832C17.6674 5.34941 17.4913 5.27137 17.3077 5.27137ZM16.6154 8.94174C15.2625 8.81342 13.967 8.2968 12.8657 7.44637C12.7622 7.36674 12.6401 7.31924 12.513 7.3091C12.3858 7.29897 12.2585 7.3266 12.1451 7.38894C12.0317 7.45128 11.9366 7.54592 11.8703 7.66241C11.804 7.7789 11.769 7.91273 11.7692 8.04914V13.0491C11.7692 14.5226 11.2222 15.9356 10.2484 16.9775C9.27469 18.0194 7.95401 18.6047 6.57692 18.6047C5.19984 18.6047 3.87915 18.0194 2.90541 16.9775C1.93166 15.9356 1.38462 14.5226 1.38462 13.0491C1.38462 10.651 2.82462 8.50007 4.84615 7.71581V10.2778C4.39862 10.5978 4.03619 11.0363 3.79419 11.5507C3.55219 12.0651 3.43888 12.6378 3.46529 13.213C3.49171 13.7882 3.65695 14.3463 3.94492 14.8328C4.23288 15.3194 4.63375 15.7178 5.10844 15.9892C5.58313 16.2607 6.11546 16.3959 6.65353 16.3818C7.19161 16.3676 7.71708 16.2045 8.17872 15.9084C8.64036 15.6123 9.02244 15.1933 9.2877 14.6922C9.55296 14.1911 9.69236 13.625 9.69231 13.0491V1.56766H11.8125C11.9682 2.87237 12.5243 4.08486 13.3935 5.01492C14.2628 5.94497 15.396 6.53997 16.6154 6.70655V8.94174Z" fill="black"/>
</svg>
