<svg width="17" height="17" viewBox="0 0 17 17" fill="none" xmlns="http://www.w3.org/2000/svg">
<path d="M14.8462 1.24823H2.15385C1.51659 1.24823 1 1.73894 1 2.34425V14.4005C1 15.0058 1.51659 15.4965 2.15385 15.4965H14.8462C15.4834 15.4965 16 15.0058 16 14.4005V2.34425C16 1.73894 15.4834 1.24823 14.8462 1.24823Z" stroke="black" stroke-width="1.3"/>
<path d="M5.61527 6.72817C6.25252 6.72817 6.76912 6.23747 6.76912 5.63215C6.76912 5.02684 6.25252 4.53613 5.61527 4.53613C4.97802 4.53613 4.46143 5.02684 4.46143 5.63215C4.46143 6.23747 4.97802 6.72817 5.61527 6.72817Z" stroke="black" stroke-width="1.3"/>
<path d="M3.88428 12.7564L5.61505 10.0163L7.34582 12.7564L10.2304 8.37228L13.115 12.7564" stroke="black" stroke-width="1.3" stroke-linecap="round" stroke-linejoin="round"/>
</svg>
