<svg width="16" height="17" viewBox="0 0 16 17" fill="none" xmlns="http://www.w3.org/2000/svg">
<path d="M8.86272 5.20055L10.0144 6.35151C10.5435 6.88061 10.9632 7.50875 11.2495 8.20008C11.5359 8.89141 11.6833 9.63237 11.6833 10.3807C11.6833 11.129 11.5359 11.8699 11.2495 12.5613C10.9632 13.2526 10.5435 13.8807 10.0144 14.4098L9.72626 14.6972C9.1972 15.2263 8.56911 15.646 7.87785 15.9323C7.1866 16.2187 6.44572 16.3661 5.69751 16.3661C4.9493 16.3661 4.20842 16.2187 3.51717 15.9323C2.82591 15.646 2.19782 15.2263 1.66876 14.6972C1.1397 14.168 0.720024 13.5399 0.433697 12.8486C0.14737 12.1572 -7.88365e-09 11.4163 0 10.668C7.88365e-09 9.91971 0.14737 9.17876 0.433697 8.48743C0.720024 7.79611 1.1397 7.16796 1.66876 6.63884L2.82041 7.79061C2.43982 8.16793 2.13748 8.61671 1.93078 9.1112C1.72407 9.60569 1.61706 10.1361 1.61588 10.6721C1.61471 11.2081 1.7194 11.739 1.92394 12.2344C2.12848 12.7297 2.42884 13.1799 2.80778 13.5588C3.18673 13.9378 3.63679 14.2382 4.13212 14.4428C4.62746 14.6473 5.15832 14.752 5.69423 14.7509C6.23013 14.7497 6.76053 14.6427 7.25496 14.4359C7.7494 14.2292 8.19814 13.9268 8.57542 13.5462L8.86354 13.2581C9.62644 12.4948 10.055 11.4598 10.055 10.3807C10.055 9.30149 9.62644 8.26649 8.86354 7.50328L7.71188 6.35151L8.86272 5.20055ZM14.3304 10.0925L13.1796 8.94157C13.9267 8.17505 14.3418 7.14501 14.335 6.07457C14.3281 5.00414 13.8999 3.9795 13.1429 3.22262C12.386 2.46575 11.3614 2.03758 10.2911 2.03087C9.22079 2.02417 8.19091 2.43946 7.42458 3.18679L7.13646 3.47412C6.37356 4.23733 5.94499 5.27233 5.94499 6.35151C5.94499 7.43069 6.37356 8.46569 7.13646 9.2289L8.28812 10.3807L7.13646 11.5316L5.98563 10.3807C5.45653 9.85157 5.03682 9.22342 4.75047 8.5321C4.46413 7.84077 4.31674 7.0998 4.31674 6.35151C4.31674 5.60321 4.46413 4.86225 4.75047 4.17092C5.03682 3.4796 5.45653 2.85145 5.98563 2.32235L6.27374 2.03502C6.8028 1.5059 7.43089 1.08619 8.12215 0.79983C8.8134 0.513474 9.55428 0.366089 10.3025 0.366089C11.0507 0.366089 11.7916 0.513474 12.4828 0.79983C13.1741 1.08619 13.8022 1.5059 14.3312 2.03502C14.8603 2.56414 15.28 3.19229 15.5663 3.88361C15.8526 4.57494 16 5.31589 16 6.06418C16 6.81246 15.8526 7.55342 15.5663 8.24474C15.28 8.93607 14.8603 9.56422 14.3312 10.0933" fill="black"/>
</svg>
