<svg width="14" height="15" viewBox="0 0 14 15" fill="none" xmlns="http://www.w3.org/2000/svg">
<path d="M7 7.90454C7.92826 7.90454 8.8185 7.53579 9.47487 6.87941C10.1313 6.22304 10.5 5.3328 10.5 4.40454C10.5 3.47628 10.1313 2.58604 9.47487 1.92967C8.8185 1.27329 7.92826 0.904541 7 0.904541C6.07174 0.904541 5.1815 1.27329 4.52513 1.92967C3.86875 2.58604 3.5 3.47628 3.5 4.40454C3.5 5.3328 3.86875 6.22304 4.52513 6.87941C5.1815 7.53579 6.07174 7.90454 7 7.90454ZM9.33333 4.40454C9.33333 5.02338 9.0875 5.61687 8.64991 6.05446C8.21233 6.49204 7.61884 6.73787 7 6.73787C6.38116 6.73787 5.78767 6.49204 5.35008 6.05446C4.9125 5.61687 4.66667 5.02338 4.66667 4.40454C4.66667 3.7857 4.9125 3.19221 5.35008 2.75462C5.78767 2.31704 6.38116 2.07121 7 2.07121C7.61884 2.07121 8.21233 2.31704 8.64991 2.75462C9.0875 3.19221 9.33333 3.7857 9.33333 4.40454ZM14 13.7379C14 14.9045 12.8333 14.9045 12.8333 14.9045H1.16667C1.16667 14.9045 0 14.9045 0 13.7379C0 12.5712 1.16667 9.07121 7 9.07121C12.8333 9.07121 14 12.5712 14 13.7379ZM12.8333 13.7332C12.8322 13.4462 12.6537 12.5829 11.8627 11.7919C11.102 11.0312 9.6705 10.2379 7 10.2379C4.3295 10.2379 2.898 11.0312 2.13733 11.7919C1.34633 12.5829 1.169 13.4462 1.16667 13.7332H12.8333Z" fill="black"/>
</svg>
