<svg width="21" height="21" viewBox="0 0 21 21" fill="none" xmlns="http://www.w3.org/2000/svg">
<path fill-rule="evenodd" clip-rule="evenodd" d="M4.60849 0H4.66905C5.32741 0 5.86562 -5.82185e-08 6.30225 0.0361395C6.7545 0.072279 7.16378 0.151395 7.54472 0.345767C8.1419 0.650083 8.62743 1.13559 8.93176 1.73274C9.12712 2.11465 9.20527 2.52391 9.24238 2.97614C9.27852 3.41274 9.27852 3.95093 9.27852 4.60926V5.06149L11.2868 3.0533C11.7518 2.58837 12.1317 2.20842 12.4658 1.92419C12.8125 1.63116 13.1574 1.39674 13.5647 1.26488C14.2021 1.05786 14.8887 1.05786 15.5261 1.26488C15.9344 1.39772 16.2782 1.63019 16.625 1.92419C16.959 2.20744 17.34 2.58837 17.8049 3.0533L17.8479 3.09726C18.3129 3.56219 18.6938 3.94214 18.9771 4.27716C19.2711 4.62293 19.5045 4.96772 19.6364 5.37502C19.8437 6.0127 19.8437 6.69962 19.6364 7.3373C19.5045 7.7446 19.2711 8.08939 18.9771 8.43516C18.6938 8.76921 18.3129 9.15014 17.8479 9.61507L15.7419 11.7209H16.3905C17.0489 11.7209 17.5871 11.7209 18.0237 11.7571C18.476 11.7932 18.8853 11.8723 19.2672 12.0667C19.8644 12.371 20.3499 12.8565 20.6542 13.4537C20.8486 13.8356 20.9277 14.2448 20.9639 14.6971C21 15.1337 21 15.6719 21 16.3302V16.3907C21 17.0491 21 17.5873 20.9639 18.0239C20.9277 18.4761 20.8486 18.8853 20.6542 19.2673C20.3499 19.8644 19.8644 20.3499 19.2672 20.6542C18.8853 20.8486 18.476 20.9277 18.0237 20.9639C17.5871 21 17.0489 21 16.3905 21H4.60947C3.95111 21 3.4129 21 2.97628 20.9639C2.52402 20.9277 2.11475 20.8486 1.7338 20.6542C1.13662 20.3499 0.65109 19.8644 0.34676 19.2673C0.151402 18.8853 0.0732592 18.4761 0.0361412 18.0239C-5.82212e-08 17.5873 0 17.0491 0 16.3907V4.61023C0 3.95191 -5.82212e-08 3.4147 0.0361412 2.97712C0.0722824 2.52488 0.151402 2.11563 0.345784 1.7347C0.650113 1.13755 1.13565 0.652036 1.73282 0.347721C2.11475 0.152372 2.52402 0.0742325 2.97628 0.0371163C3.41388 0.000976732 3.95111 0.00097679 4.60947 0.00097679M8.78036 19.5359H16.3602C17.0557 19.5359 17.5344 19.5359 17.9036 19.5046C18.266 19.4753 18.4603 19.4216 18.602 19.3493C18.9234 19.1852 19.1846 18.9237 19.3482 18.6021C19.4205 18.4614 19.4752 18.2671 19.5045 17.9057C19.5338 17.5345 19.5348 17.0569 19.5348 16.3614C19.5348 15.666 19.5348 15.1874 19.5036 14.8182C19.4743 14.4558 19.4205 14.2614 19.3482 14.1198C19.1842 13.7984 18.9226 13.5372 18.601 13.3736C18.4603 13.3013 18.266 13.2466 17.9046 13.2173C17.5334 13.188 17.0557 13.187 16.3602 13.187H14.2768L9.22089 18.2427C9.18693 18.599 9.08933 18.9463 8.93274 19.2682C8.88596 19.3599 8.83576 19.4492 8.78036 19.5359ZM9.27852 16.1133L16.79 8.60219C17.2823 8.10991 17.6203 7.77195 17.8606 7.4887C18.095 7.2113 18.1947 7.03549 18.2435 6.88507C18.3549 6.54194 18.3549 6.17234 18.2435 5.82921C18.1947 5.67879 18.095 5.50298 17.8606 5.22656C17.6193 4.9433 17.2823 4.60437 16.79 4.11307C16.2977 3.62079 15.9598 3.28284 15.6765 3.04256C15.4001 2.80814 15.2242 2.70851 15.0738 2.65967C14.7304 2.54804 14.3604 2.54804 14.0169 2.65967C13.8675 2.70851 13.6917 2.80716 13.4143 3.04256C13.131 3.28284 12.793 3.62079 12.3007 4.11209L10.2084 6.20428C9.60184 6.81181 9.45142 6.97981 9.37132 7.17321C9.2922 7.36465 9.27852 7.5893 9.27852 8.43712V8.44884V16.1133ZM7.81334 16.4015C7.81334 17.0754 7.81236 17.5423 7.78208 17.9057C7.75278 18.2671 7.69906 18.4624 7.62677 18.6021C7.46287 18.9238 7.20128 19.1854 6.87953 19.3493C6.73887 19.4216 6.54449 19.4763 6.18308 19.5056C5.8119 19.5349 5.33425 19.5359 4.63877 19.5359C3.9433 19.5359 3.46467 19.5359 3.09545 19.5046C2.73306 19.4753 2.53868 19.4216 2.39802 19.3493C2.07626 19.1854 1.81468 18.9238 1.65077 18.6021C1.57849 18.4614 1.52379 18.2671 1.49449 17.9057C1.46518 17.5345 1.46421 17.0569 1.46421 16.3614V4.63953C1.46421 3.94409 1.46421 3.46549 1.49546 3.09628C1.52477 2.73391 1.57849 2.53954 1.65077 2.39888C1.81468 2.07714 2.07626 1.81557 2.39802 1.65167C2.53868 1.5794 2.73306 1.5247 3.09447 1.4954C3.46565 1.46609 3.9433 1.46512 4.63877 1.46512C5.33425 1.46512 5.81287 1.46512 6.1821 1.49637C6.54449 1.52567 6.73887 1.5794 6.87953 1.65167C7.20187 1.81577 7.46267 2.07656 7.62677 2.39888C7.69906 2.53954 7.75376 2.73391 7.78306 3.0953C7.81236 3.46647 7.81334 3.94409 7.81334 4.63953V16.3605V16.4015ZM2.92939 17.3382C2.92939 17.1439 3.00658 16.9576 3.14396 16.8202C3.28135 16.6828 3.46769 16.6056 3.66198 16.6056H5.61556C5.80986 16.6056 5.9962 16.6828 6.13358 16.8202C6.27097 16.9576 6.34816 17.1439 6.34816 17.3382C6.34816 17.5325 6.27097 17.7188 6.13358 17.8562C5.9962 17.9936 5.80986 18.0707 5.61556 18.0707H3.66198C3.46769 18.0707 3.28135 17.9936 3.14396 17.8562C3.00658 17.7188 2.92939 17.5325 2.92939 17.3382Z" fill="black"/>
</svg>
