<svg width="21" height="24" viewBox="0 0 21 24" fill="none" xmlns="http://www.w3.org/2000/svg">
<path fill-rule="evenodd" clip-rule="evenodd" d="M17.0769 1H6.84597C6.07071 1 5.3272 1.30797 4.77901 1.85616C4.23082 2.40435 3.92285 3.14786 3.92285 3.92312V17.0772C3.92285 17.8524 4.23082 18.5959 4.77901 19.1441C5.3272 19.6923 6.07071 20.0003 6.84597 20.0003H17.0769C17.8521 20.0003 18.5957 19.6923 19.1438 19.1441C19.692 18.5959 20 17.8524 20 17.0772V3.92312C20 3.14786 19.692 2.40435 19.1438 1.85616C18.5957 1.30797 17.8521 1 17.0769 1Z" stroke="black" stroke-width="1.3" stroke-linecap="round" stroke-linejoin="round"/>
<path d="M3.92312 3.9231C3.14786 3.9231 2.40435 4.23107 1.85616 4.77926C1.30797 5.32745 1 6.07096 1 6.84621V18.5387C1 19.7016 1.46196 20.8168 2.28424 21.6391C3.10653 22.4614 4.22179 22.9234 5.38468 22.9234H14.154C14.9293 22.9234 15.6728 22.6154 16.221 22.0672C16.7692 21.519 17.0772 20.7755 17.0772 20.0002" stroke="black" stroke-width="1.3" stroke-linecap="round" stroke-linejoin="round"/>
</svg>
