<svg width="16" height="16" viewBox="0 0 16 16" fill="none" xmlns="http://www.w3.org/2000/svg">
<path d="M7.98947 7.98423C9.04894 7.98423 10.065 7.56336 10.8142 6.8142C11.5633 6.06504 11.9842 5.04897 11.9842 3.9895C11.9842 2.93003 11.5633 1.91395 10.8142 1.16479C10.065 0.415632 9.04894 -0.00524139 7.98947 -0.00524139C6.93 -0.00524139 5.91393 0.415632 5.16477 1.16479C4.41561 1.91395 3.99474 2.93003 3.99474 3.9895C3.99474 5.04897 4.41561 6.06504 5.16477 6.8142C5.91393 7.56336 6.93 7.98423 7.98947 7.98423ZM10.6526 3.9895C10.6526 4.69581 10.372 5.37319 9.87261 5.87263C9.37317 6.37207 8.69579 6.65265 7.98947 6.65265C7.28316 6.65265 6.60578 6.37207 6.10634 5.87263C5.6069 5.37319 5.32632 4.69581 5.32632 3.9895C5.32632 3.28318 5.6069 2.6058 6.10634 2.10636C6.60578 1.60692 7.28316 1.32634 7.98947 1.32634C8.69579 1.32634 9.37317 1.60692 9.87261 2.10636C10.372 2.6058 10.6526 3.28318 10.6526 3.9895ZM15.9789 14.6421C15.9789 15.9737 14.6474 15.9737 14.6474 15.9737H1.33158C1.33158 15.9737 0 15.9737 0 14.6421C0 13.3105 1.33158 9.31581 7.98947 9.31581C14.6474 9.31581 15.9789 13.3105 15.9789 14.6421ZM14.6474 14.6368C14.646 14.3092 14.4423 13.3239 13.5395 12.4211C12.6713 11.5529 11.0375 10.6474 7.98947 10.6474C4.94149 10.6474 3.30764 11.5529 2.43945 12.4211C1.53664 13.3239 1.33424 14.3092 1.33158 14.6368H14.6474Z" fill="black"/>
</svg>
