<svg width="17" height="17" viewBox="0 0 17 17" fill="none" xmlns="http://www.w3.org/2000/svg">
<path d="M5.83241 15.3325C5.40576 15.7595 4.82709 15.9995 4.22355 16H1V12.7967C1 12.1933 1.23995 11.6142 1.66654 11.1875M5.83241 15.3325L1.66654 11.1875M5.83241 15.3325L14.1425 7.01748M1.66654 11.1875L9.98494 2.8583L11.173 1.6683C11.3845 1.45651 11.6355 1.28848 11.9119 1.17381C12.1883 1.05914 12.4846 1.00008 12.7838 1C13.083 0.999923 13.3793 1.05883 13.6558 1.17336C13.9322 1.28789 14.1834 1.45579 14.3949 1.66746L15.3331 2.60663C15.7601 3.03375 16 3.61303 16 4.21705C16 4.82108 15.7601 5.40036 15.3331 5.82748L14.1425 7.01748M14.1425 7.01748L9.98411 2.8583" stroke="black" stroke-linecap="round" stroke-linejoin="round"/>
</svg>
