<svg width="17" height="17" viewBox="0 0 17 17" fill="none" xmlns="http://www.w3.org/2000/svg">
<path d="M11.5739 12.1347L14.0486 15.0292M7.52156 15.5993L15.6262 8.67012L14.7551 7.65125C14.5708 7.43595 14.3302 7.27632 14.0601 7.19031C13.7901 7.10431 13.5014 7.09533 13.2266 7.1644L11.7507 7.52439C11.4758 7.59346 11.1872 7.58448 10.9171 7.49848C10.6471 7.41247 10.4064 7.25284 10.2222 7.03754L7.86623 4.28195L8.44513 3.78701C8.7522 3.52448 8.9424 3.15071 8.97389 2.74794C9.00538 2.34517 8.87559 1.94638 8.61305 1.63931C8.35052 1.33224 7.97675 1.14204 7.57398 1.11055C7.17121 1.07906 6.77243 1.20886 6.46536 1.47139L1.83412 5.43094C1.52705 5.69348 1.33685 6.06724 1.30536 6.47001C1.27387 6.87278 1.40367 7.27157 1.6662 7.57864C1.92874 7.88571 2.3025 8.07591 2.70527 8.1074C3.10804 8.13889 3.50683 8.00909 3.8139 7.74656L4.3928 7.25161L6.74873 10.0072C6.93278 10.2227 7.05306 10.4853 7.09605 10.7654C7.13905 11.0455 7.10304 11.332 6.9921 11.5928L6.4071 12.9948C6.29615 13.2556 6.26015 13.5422 6.30314 13.8223C6.34614 14.1024 6.46642 14.365 6.65046 14.5805L7.52156 15.5993Z" stroke="black" stroke-width="1.4" stroke-linecap="round" stroke-linejoin="round"/>
</svg>
