<svg width="15" height="14" viewBox="0 0 15 14" fill="none" xmlns="http://www.w3.org/2000/svg">
<path d="M7.5 13.5C11.0899 13.5 14 10.59 14 7C14 3.41005 11.0899 0.5 7.5 0.5C3.91005 0.5 1 3.41005 1 7C1 8.04 1.2444 9.0228 1.67795 9.89445C1.79365 10.1258 1.832 10.3904 1.76505 10.6407L1.3783 12.0876C1.34 12.2307 1.34003 12.3815 1.3784 12.5247C1.41677 12.6678 1.49213 12.7984 1.5969 12.9032C1.70168 13.0081 1.83219 13.0835 1.97534 13.122C2.11849 13.1604 2.26924 13.1606 2.41245 13.1224L3.85935 12.735C4.1105 12.6715 4.37619 12.7023 4.6062 12.8214C5.50512 13.269 6.49583 13.5013 7.5 13.5Z" stroke="black" stroke-width="0.8"/>
<path d="M7.49922 9.16647C8.21747 9.16647 8.79922 8.68157 8.79922 8.08357C8.79922 7.48557 8.21747 7.00002 7.49922 7.00002C6.78097 7.00002 6.19922 6.51512 6.19922 5.91647C6.19922 5.31847 6.78097 4.83357 7.49922 4.83357M7.49922 9.16647C6.78097 9.16647 6.19922 8.68157 6.19922 8.08357M7.49922 9.16647V9.60002M7.49922 4.83357V4.40002M7.49922 4.83357C8.21747 4.83357 8.79922 5.31847 8.79922 5.91647" stroke="black" stroke-width="0.8" stroke-linecap="round"/>
</svg>
