<svg width="14" height="14" viewBox="0 0 14 14" fill="none" xmlns="http://www.w3.org/2000/svg">
<path d="M11.0619 3.63743V1.69882C11.0619 1.52743 10.9938 1.36307 10.8727 1.24188C10.7515 1.12069 10.5871 1.05261 10.4157 1.05261H2.01507C1.6723 1.05261 1.34357 1.18878 1.10119 1.43115C0.85882 1.67352 0.722656 2.00225 0.722656 2.34502C0.722656 2.68779 0.85882 3.01652 1.10119 3.25889C1.34357 3.50127 1.6723 3.63743 2.01507 3.63743H11.7081C11.8795 3.63743 12.0439 3.70551 12.1651 3.8267C12.2863 3.94789 12.3543 4.11225 12.3543 4.28364V6.86845M12.3543 6.86845H10.4157C10.073 6.86845 9.74423 7.00462 9.50185 7.24699C9.25948 7.48937 9.12332 7.81809 9.12332 8.16086C9.12332 8.50363 9.25948 8.83236 9.50185 9.07473C9.74423 9.31711 10.073 9.45327 10.4157 9.45327H12.3543C12.5257 9.45327 12.6901 9.38519 12.8113 9.264C12.9325 9.14282 13.0005 8.97845 13.0005 8.80707V7.51466C13.0005 7.34327 12.9325 7.17891 12.8113 7.05772C12.6901 6.93654 12.5257 6.86845 12.3543 6.86845Z" stroke="black" stroke-width="0.8" stroke-linecap="round" stroke-linejoin="round"/>
<path d="M0.722656 2.34509V11.392C0.722656 11.7347 0.85882 12.0635 1.10119 12.3058C1.34357 12.5482 1.6723 12.6844 2.01507 12.6844H11.7081C11.8795 12.6844 12.0439 12.6163 12.1651 12.4951C12.2863 12.3739 12.3543 12.2095 12.3543 12.0382V9.45334" stroke="black" stroke-width="0.8" stroke-linecap="round" stroke-linejoin="round"/>
</svg>
