<svg width="16" height="16" viewBox="0 0 16 16" fill="none" xmlns="http://www.w3.org/2000/svg">
<path d="M7.98947 7.98422C9.04894 7.98422 10.065 7.56335 10.8142 6.81419C11.5633 6.06503 11.9842 5.04896 11.9842 3.98949C11.9842 2.93002 11.5633 1.91394 10.8142 1.16478C10.065 0.415624 9.04894 -0.00524902 7.98947 -0.00524902C6.93 -0.00524902 5.91393 0.415624 5.16477 1.16478C4.41561 1.91394 3.99474 2.93002 3.99474 3.98949C3.99474 5.04896 4.41561 6.06503 5.16477 6.81419C5.91393 7.56335 6.93 7.98422 7.98947 7.98422ZM10.6526 3.98949C10.6526 4.6958 10.372 5.37319 9.87261 5.87262C9.37317 6.37206 8.69579 6.65265 7.98947 6.65265C7.28316 6.65265 6.60578 6.37206 6.10634 5.87262C5.6069 5.37319 5.32632 4.6958 5.32632 3.98949C5.32632 3.28317 5.6069 2.60579 6.10634 2.10635C6.60578 1.60691 7.28316 1.32633 7.98947 1.32633C8.69579 1.32633 9.37317 1.60691 9.87261 2.10635C10.372 2.60579 10.6526 3.28317 10.6526 3.98949ZM15.9789 14.6421C15.9789 15.9737 14.6474 15.9737 14.6474 15.9737H1.33158C1.33158 15.9737 0 15.9737 0 14.6421C0 13.3105 1.33158 9.3158 7.98947 9.3158C14.6474 9.3158 15.9789 13.3105 15.9789 14.6421ZM14.6474 14.6368C14.646 14.3092 14.4423 13.3239 13.5395 12.421C12.6713 11.5529 11.0375 10.6474 7.98947 10.6474C4.94149 10.6474 3.30764 11.5529 2.43945 12.421C1.53664 13.3239 1.33424 14.3092 1.33158 14.6368H14.6474Z" fill="black"/>
</svg>
