<svg width="16" height="16" viewBox="0 0 16 16" fill="none" xmlns="http://www.w3.org/2000/svg">
<path d="M14.6667 5.33333H1.33333C0.979711 5.33333 0.640573 5.47381 0.390524 5.72386C0.140476 5.97391 0 6.31305 0 6.66667V14.6667C0 15.0203 0.140476 15.3594 0.390524 15.6095C0.640573 15.8595 0.979711 16 1.33333 16H14.6667C15.0203 16 15.3594 15.8595 15.6095 15.6095C15.8595 15.3594 16 15.0203 16 14.6667V6.66667C16 6.31305 15.8595 5.97391 15.6095 5.72386C15.3594 5.47381 15.0203 5.33333 14.6667 5.33333ZM14.6667 14.6667H1.33333V6.66667H14.6667V14.6667ZM1.33333 3.33333C1.33333 3.15652 1.40357 2.98695 1.5286 2.86193C1.65362 2.7369 1.82319 2.66667 2 2.66667H14C14.1768 2.66667 14.3464 2.7369 14.4714 2.86193C14.5964 2.98695 14.6667 3.15652 14.6667 3.33333C14.6667 3.51014 14.5964 3.67971 14.4714 3.80474C14.3464 3.92976 14.1768 4 14 4H2C1.82319 4 1.65362 3.92976 1.5286 3.80474C1.40357 3.67971 1.33333 3.51014 1.33333 3.33333ZM2.66667 0.666667C2.66667 0.489856 2.7369 0.320286 2.86193 0.195262C2.98695 0.0702379 3.15652 0 3.33333 0H12.6667C12.8435 0 13.013 0.0702379 13.1381 0.195262C13.2631 0.320286 13.3333 0.489856 13.3333 0.666667C13.3333 0.843478 13.2631 1.01305 13.1381 1.13807C13.013 1.2631 12.8435 1.33333 12.6667 1.33333H3.33333C3.15652 1.33333 2.98695 1.2631 2.86193 1.13807C2.7369 1.01305 2.66667 0.843478 2.66667 0.666667Z" fill="black"/>
</svg>
