<svg width="16" height="16" viewBox="0 0 16 16" fill="none" xmlns="http://www.w3.org/2000/svg">
<path fill-rule="evenodd" clip-rule="evenodd" d="M7.53991 0.0017145C9.38003 0.00143132 11.1575 0.706474 12.5413 1.98553C13.9251 3.26458 14.8209 5.03045 15.0618 6.95424C15.0767 7.07449 15.0689 7.19665 15.039 7.31374C15.0091 7.43084 14.9577 7.54057 14.8875 7.63669C14.8174 7.7328 14.73 7.81341 14.6304 7.87391C14.5307 7.93441 14.4207 7.97362 14.3067 7.9893C14.1927 8.00498 14.0768 7.99682 13.9658 7.96529C13.8548 7.93375 13.7507 7.87946 13.6596 7.80552C13.5684 7.73158 13.492 7.63943 13.4346 7.53433C13.3772 7.42924 13.34 7.31325 13.3252 7.193C13.181 6.05001 12.7352 4.97271 12.0387 4.08386C11.3422 3.19502 10.4229 2.53038 9.38562 2.16567C8.34834 1.80096 7.23476 1.75085 6.17178 2.02106C5.10881 2.29127 4.13918 2.87092 3.3734 3.69397H4.91396C5.14611 3.69397 5.36875 3.79122 5.5329 3.96433C5.69705 4.13744 5.78927 4.37223 5.78927 4.61704C5.78927 4.86185 5.69705 5.09664 5.5329 5.26974C5.36875 5.44285 5.14611 5.5401 4.91396 5.5401H1.41268C1.18053 5.5401 0.957893 5.44285 0.793739 5.26974C0.629585 5.09664 0.537364 4.86185 0.537364 4.61704V0.924779C0.537364 0.803561 0.560005 0.683529 0.603993 0.571538C0.647982 0.459546 0.712458 0.357788 0.793739 0.272074C0.875019 0.186359 0.971514 0.118367 1.07771 0.0719785C1.18391 0.0255902 1.29773 0.0017145 1.41268 0.0017145C1.52763 0.0017145 1.64145 0.0255902 1.74765 0.0719785C1.85385 0.118367 1.95035 0.186359 2.03163 0.272074C2.11291 0.357788 2.17738 0.459546 2.22137 0.571538C2.26536 0.683529 2.288 0.803561 2.288 0.924779V2.22938C3.69916 0.797843 5.58182 -0.000711418 7.53991 0.0017145ZM13.6671 16.0015C13.8993 16.0015 14.1219 15.9043 14.2861 15.7311C14.4502 15.558 14.5425 15.3233 14.5425 15.0784V11.3862C14.5425 11.1414 14.4502 10.9066 14.2861 10.7335C14.1219 10.5604 13.8993 10.4631 13.6671 10.4631H10.1659C9.93372 10.4631 9.71108 10.5604 9.54692 10.7335C9.38277 10.9066 9.29055 11.1414 9.29055 11.3862C9.29055 11.631 9.38277 11.8658 9.54692 12.0389C9.71108 12.212 9.93372 12.3092 10.1659 12.3092H11.7064C10.9407 13.1327 9.97097 13.7126 8.90782 13.9831C7.84468 14.2535 6.73087 14.2035 5.69337 13.8387C4.65586 13.474 3.73641 12.8092 3.03981 11.9201C2.34321 11.031 1.8975 9.95346 1.75347 8.81021C1.74105 8.6879 1.70558 8.56945 1.64913 8.4618C1.59268 8.35416 1.51639 8.25949 1.42476 8.18338C1.33313 8.10726 1.22799 8.05123 1.11553 8.01857C1.00307 7.98591 0.885559 7.97728 0.769893 7.99319C0.654227 8.00911 0.542744 8.04924 0.441994 8.11123C0.341245 8.17323 0.253261 8.25583 0.183213 8.35419C0.113166 8.45255 0.0624673 8.56468 0.0340969 8.684C0.00572646 8.80331 0.000256392 8.9274 0.0180083 9.04898C0.201747 10.5151 0.767208 11.8988 1.65161 13.0465C2.536 14.1942 3.70473 15.061 5.02802 15.5506C6.35131 16.0402 7.77738 16.1335 9.1479 15.82C10.5184 15.5066 11.7797 14.7988 12.7918 13.7751V15.0784C12.7918 15.588 13.184 16.0015 13.6671 16.0015Z" fill="black"/>
</svg>
