<svg width="17" height="16" viewBox="0 0 17 16" fill="none" xmlns="http://www.w3.org/2000/svg">
<path d="M11.616 9.79962L14.7422 6.80529L10.4309 6.18021L8.5 2.32892L6.56911 6.18021L2.25781 6.80529L5.38401 9.79962L4.63822 14.0441L8.5 12.0378L12.3516 14.0441L11.616 9.79962ZM17 6.20038C17 6.34825 16.9115 6.50956 16.7344 6.68431L13.0258 10.2533L13.9044 15.2943C13.9113 15.3413 13.9147 15.4085 13.9147 15.4959C13.9147 15.832 13.775 16 13.4958 16C13.3664 16 13.2302 15.9597 13.0871 15.879L8.5 13.4997L3.91286 15.879C3.76302 15.9597 3.6268 16 3.50421 16C3.36118 16 3.25391 15.9513 3.18239 15.8538C3.11088 15.7564 3.07512 15.6371 3.07512 15.4959C3.07512 15.4556 3.08193 15.3884 3.09555 15.2943L3.97416 10.2533L0.255409 6.68431C0.0851362 6.50284 0 6.34152 0 6.20038C0 5.95169 0.190705 5.7971 0.572115 5.73661L5.70072 5.00063L7.9994 0.413359C8.12881 0.137786 8.29567 0 8.5 0C8.70433 0 8.87119 0.137786 9.0006 0.413359L11.2993 5.00063L16.4279 5.73661C16.8093 5.7971 17 5.95169 17 6.20038Z" fill="black"/>
</svg>
