<svg width="21" height="19" viewBox="0 0 21 19" fill="none" xmlns="http://www.w3.org/2000/svg">
<path d="M1.79761 7.62903V16.1521C1.79761 16.6545 1.99716 17.1362 2.35235 17.4914C2.70755 17.8466 3.1893 18.0461 3.69163 18.0461H16.9498C17.4521 18.0461 17.9339 17.8466 18.2891 17.4914C18.6443 17.1362 18.8438 16.6545 18.8438 16.1521V7.62903" stroke="black" stroke-width="1.3"/>
<path d="M13.0036 18.0462V12.3641C13.0036 11.8618 12.804 11.38 12.4489 11.0248C12.0937 10.6696 11.6119 10.4701 11.1096 10.4701H9.21555C8.71323 10.4701 8.23148 10.6696 7.87628 11.0248C7.52108 11.38 7.32153 11.8618 7.32153 12.3641V18.0462" stroke="black" stroke-width="1.3" stroke-miterlimit="16"/>
<path d="M19.6187 7.02678L18.0145 1.41195C17.9805 1.29324 17.9088 1.18882 17.8102 1.11449C17.7116 1.04016 17.5915 0.999973 17.4681 1H13.6355L14.0853 6.40175C14.0923 6.48857 14.1198 6.57249 14.1656 6.64659C14.2113 6.72068 14.2741 6.78283 14.3486 6.8279C14.7179 7.04856 15.4396 7.45577 16.003 7.62908C16.9652 7.92549 18.3706 7.81848 19.1717 7.71999C19.2496 7.70992 19.3244 7.68298 19.3908 7.64104C19.4572 7.5991 19.5136 7.54318 19.5562 7.47717C19.5987 7.41117 19.6264 7.33667 19.6372 7.25888C19.648 7.18109 19.6417 7.10188 19.6187 7.02678Z" stroke="black" stroke-width="1.3"/>
<path d="M12.215 7.62908C12.7529 7.46335 13.4347 7.08549 13.8154 6.8601C13.904 6.80711 13.9759 6.73024 14.0228 6.63828C14.0697 6.54633 14.0897 6.44302 14.0806 6.34019L13.6355 1H7.00641L6.56131 6.34019C6.55201 6.44317 6.57195 6.54668 6.61886 6.63882C6.66577 6.73096 6.73773 6.80799 6.82647 6.86105C7.20717 7.08549 7.88902 7.46335 8.42692 7.62908C9.84081 8.0647 10.8011 8.0647 12.215 7.62908Z" stroke="black" stroke-width="1.3"/>
<path d="M2.62728 1.41195L1.02305 7.02772C1.0004 7.10271 0.99435 7.18172 1.00531 7.25928C1.01626 7.33684 1.04397 7.41109 1.0865 7.47686C1.12903 7.54264 1.18537 7.59837 1.2516 7.64019C1.31783 7.68201 1.39236 7.70892 1.47004 7.71904C2.27026 7.81848 3.67657 7.92454 4.63874 7.62908C5.20221 7.45577 5.92478 7.04856 6.29316 6.82885C6.36781 6.78369 6.43063 6.72139 6.47641 6.64712C6.5222 6.57284 6.54963 6.48873 6.55643 6.40175L7.00626 1H3.17371C3.05024 0.999973 2.93012 1.04016 2.83153 1.11449C2.73294 1.18882 2.66124 1.29324 2.62728 1.41195Z" stroke="black" stroke-width="1.3"/>
</svg>
