<svg width="1440" height="775" viewBox="0 0 1440 775" fill="none" xmlns="http://www.w3.org/2000/svg">
<path d="M1835.01 336.478C1647.54 227.896 1443.54 98.2577 1218.47 112.996C1116.83 119.652 996.612 154.483 924.386 231.014C872.674 285.809 817.678 369.758 815.661 447.649C814.377 497.214 829.228 561.712 863.145 597.218C893.6 629.1 922.721 657.986 964.233 673.473C1064.15 710.751 1172.47 699.146 1247.22 622.4C1273.36 595.566 1305.22 526.155 1305.78 488.685C1306.43 445.163 1296.16 402.19 1281.12 361.541C1229.33 221.511 1099.04 116.715 957.231 80.0162C833.364 47.9597 712.202 54.4479 587.377 81.5136C510.202 98.2476 438.801 126.956 367.73 160.908C304.116 191.298 241.979 224.014 184.923 265.643C82.4788 340.388 -10.7323 432.316 -79.4086 539.42C-115.959 596.422 -148.822 655.809 -182.752 714.391" stroke="#DCFFBA" stroke-width="120" stroke-linecap="round"/>
</svg>
