<svg width="23" height="24" viewBox="0 0 23 24" fill="none" xmlns="http://www.w3.org/2000/svg">
<path d="M9.16667 9.80503C9.16667 9.63574 9.20001 9.4681 9.2648 9.31169C9.32959 9.15528 9.42454 9.01317 9.54425 8.89346C9.66396 8.77375 9.80608 8.67879 9.96249 8.614C10.1189 8.54921 10.2865 8.51587 10.4558 8.51587H12.5442C12.7135 8.51587 12.8811 8.54921 13.0375 8.614C13.1939 8.67879 13.336 8.77375 13.4557 8.89346C13.5755 9.01317 13.6704 9.15528 13.7352 9.31169C13.8 9.4681 13.8333 9.63574 13.8333 9.80503V21.2267C13.8333 21.5686 13.6975 21.8965 13.4557 22.1383C13.214 22.38 12.8861 22.5159 12.5442 22.5159H10.4558C10.1139 22.5159 9.78602 22.38 9.54425 22.1383C9.30249 21.8965 9.16667 21.5686 9.16667 21.2267V9.80503ZM17.3333 2.80504C17.3333 2.63574 17.3667 2.4681 17.4315 2.31169C17.4963 2.15528 17.5912 2.01317 17.7109 1.89346C17.9527 1.65169 18.2806 1.51587 18.6225 1.51587H20.7108C20.8801 1.51587 21.0478 1.54921 21.2042 1.614C21.3606 1.67879 21.5027 1.77375 21.6224 1.89346C21.7421 2.01317 21.8371 2.15528 21.9019 2.31169C21.9667 2.4681 22 2.63574 22 2.80504V21.2267C22 21.5686 21.8642 21.8965 21.6224 22.1383C21.3806 22.38 21.0527 22.5159 20.7108 22.5159H18.6225C18.2806 22.5159 17.9527 22.38 17.7109 22.1383C17.4692 21.8965 17.3333 21.5686 17.3333 21.2267V2.80504ZM1 20.1825C1 20.8014 1.24583 21.3949 1.68342 21.8325C2.121 22.27 2.71449 22.5159 3.33333 22.5159C3.95217 22.5159 4.54566 22.27 4.98325 21.8325C5.42083 21.3949 5.66667 20.8014 5.66667 20.1825C5.66667 19.5637 5.42083 18.9702 4.98325 18.5326C4.54566 18.095 3.95217 17.8492 3.33333 17.8492C2.71449 17.8492 2.121 18.095 1.68342 18.5326C1.24583 18.9702 1 19.5637 1 20.1825Z" stroke="black" stroke-width="1.3" stroke-linecap="round" stroke-linejoin="round"/>
</svg>
