<svg width="68" height="24" viewBox="0 0 68 24" fill="none" xmlns="http://www.w3.org/2000/svg">
<rect x="0.5" y="1.10938" width="66.0781" height="21.686" rx="10.843" fill="#DCFFBA" stroke="black"/>
<path fill-rule="evenodd" clip-rule="evenodd" d="M55.2633 16.1505L56.601 11.059L54.646 12.3041C54.2562 12.5526 53.7844 12.6384 53.3321 12.543C52.8797 12.4475 52.4828 12.1785 52.2266 11.7937L50.94 9.86076L49.6526 11.7946C49.3962 12.1793 48.9992 12.4481 48.5469 12.5434C48.0945 12.6386 47.6228 12.5527 47.2331 12.3041L45.2799 11.059L46.6176 16.1505H55.2633ZM45.7532 10.3137C45.0759 9.88195 44.2202 10.5062 44.4242 11.2833L45.7629 16.3748C45.8124 16.5635 45.9231 16.7305 46.0776 16.8496C46.232 16.9688 46.4216 17.0335 46.6167 17.0335H55.2633C55.4584 17.0335 55.648 16.9688 55.8024 16.8496C55.9569 16.7305 56.0676 16.5635 56.1171 16.3748L57.4558 11.2833C57.6589 10.5062 56.8041 9.88283 56.1268 10.3137L54.1718 11.5588C53.977 11.6832 53.7412 11.7262 53.5151 11.6786C53.2889 11.6311 53.0904 11.4968 52.9621 11.3045L51.6747 9.37068C51.594 9.24974 51.4848 9.15059 51.3566 9.082C51.2285 9.01342 51.0854 8.97754 50.94 8.97754C50.7946 8.97754 50.6515 9.01342 50.5234 9.082C50.3952 9.15059 50.286 9.24974 50.2053 9.37068L48.9179 11.3045C48.7898 11.4969 48.5913 11.6314 48.3651 11.6791C48.139 11.7268 47.9031 11.684 47.7082 11.5597L45.7532 10.3137Z" fill="black"/>
<path d="M51.7737 7.4322C51.7739 7.65351 51.6862 7.86585 51.5299 8.02251C51.3736 8.17916 51.1614 8.2673 50.9401 8.26754C50.7188 8.26777 50.5065 8.18008 50.3498 8.02376C50.1932 7.86743 50.105 7.65528 50.1048 7.43397C50.1046 7.21266 50.1923 7.00032 50.3486 6.84366C50.5049 6.68701 50.7171 6.59887 50.9384 6.59863C51.1597 6.5984 51.372 6.68609 51.5287 6.84241C51.6853 6.99874 51.7735 7.21089 51.7737 7.4322ZM58.4458 9.10199C58.4459 9.3233 58.3581 9.53559 58.2017 9.69216C58.0453 9.84874 57.8331 9.93676 57.6118 9.93688C57.3905 9.937 57.1782 9.8492 57.0216 9.69279C56.865 9.53638 56.777 9.32418 56.7769 9.10287C56.7769 8.88156 56.8648 8.66932 57.0213 8.51283C57.1778 8.35634 57.39 8.26842 57.6113 8.26842C57.8326 8.26842 58.0449 8.35634 58.2014 8.51283C58.3579 8.66932 58.4458 8.88068 58.4458 9.10199ZM45.1025 9.10199C45.1026 9.21157 45.081 9.32009 45.0391 9.42135C44.9973 9.52262 44.9358 9.61464 44.8584 9.69216C44.781 9.76969 44.689 9.83121 44.5878 9.87319C44.4866 9.91518 44.3781 9.93682 44.2685 9.93688C44.1589 9.93694 44.0504 9.91541 43.9491 9.87353C43.8479 9.83165 43.7558 9.77023 43.6783 9.69279C43.6008 9.61534 43.5393 9.52339 43.4973 9.42217C43.4553 9.32095 43.4337 9.21245 43.4336 9.10287C43.4336 8.88156 43.5215 8.66932 43.678 8.51283C43.8345 8.35634 44.0467 8.26842 44.268 8.26842C44.4894 8.26842 44.7016 8.35634 44.8581 8.51283C45.0146 8.66932 45.1025 8.88068 45.1025 9.10199Z" fill="black"/>
<path d="M17.8761 13.5601H14.1641V11.9601H17.7161C18.1215 11.9601 18.5001 11.9015 18.8521 11.7841C19.2041 11.6561 19.4868 11.4481 19.7001 11.1601C19.9135 10.8615 20.0201 10.4615 20.0201 9.96015C20.0201 9.39481 19.9135 8.96281 19.7001 8.66415C19.4868 8.35481 19.2041 8.14148 18.8521 8.02415C18.5001 7.89615 18.1215 7.83215 17.7161 7.83215H14.1641V6.23215H17.8761C18.6335 6.23215 19.3161 6.36548 19.9241 6.63215C20.5321 6.88815 21.0121 7.29348 21.3641 7.84815C21.7268 8.39215 21.9081 9.09615 21.9081 9.96015C21.9081 10.7708 21.7268 11.4428 21.3641 11.9761C21.0121 12.5095 20.5321 12.9095 19.9241 13.1761C19.3161 13.4321 18.6335 13.5601 17.8761 13.5601ZM15.3161 16.9521H13.5081V6.23215H15.3161V16.9521ZM24.8131 16.9521H23.0211V9.16015H24.8131V16.9521ZM24.8131 12.6641L24.7171 11.9441C24.7598 11.5815 24.8398 11.2241 24.9571 10.8721C25.0851 10.5201 25.2505 10.2055 25.4531 9.92815C25.6665 9.64015 25.9225 9.41615 26.2211 9.25615C26.5305 9.08548 26.8825 9.00015 27.2771 9.00015C27.7678 9.00015 28.1731 9.15481 28.4931 9.46415C28.8131 9.77348 28.9731 10.2215 28.9731 10.8081C28.9731 11.1708 28.9305 11.4908 28.8451 11.7681C28.7705 12.0348 28.6958 12.2268 28.6211 12.3441H26.7811C26.9091 12.2161 27.0211 12.0401 27.1171 11.8161C27.2238 11.5815 27.2771 11.3521 27.2771 11.1281C27.2771 10.9148 27.2185 10.7335 27.1011 10.5841C26.9945 10.4241 26.8078 10.3441 26.5411 10.3441C26.2425 10.3441 25.9598 10.4508 25.6931 10.6641C25.4371 10.8668 25.2238 11.1441 25.0531 11.4961C24.8931 11.8481 24.8131 12.2375 24.8131 12.6641ZM33.2543 17.1121C32.5076 17.1121 31.8463 16.9468 31.2703 16.6161C30.7049 16.2748 30.2623 15.8001 29.9423 15.1921C29.6329 14.5735 29.4783 13.8641 29.4783 13.0641C29.4783 12.2428 29.6329 11.5335 29.9423 10.9361C30.2623 10.3281 30.7049 9.85348 31.2703 9.51215C31.8463 9.17081 32.5076 9.00015 33.2543 9.00015C34.0116 9.00015 34.6729 9.17081 35.2383 9.51215C35.8143 9.85348 36.2623 10.3281 36.5823 10.9361C36.9023 11.5335 37.0623 12.2428 37.0623 13.0641C37.0623 13.8641 36.9023 14.5735 36.5823 15.1921C36.2623 15.8001 35.8143 16.2748 35.2383 16.6161C34.6729 16.9468 34.0116 17.1121 33.2543 17.1121ZM33.2703 15.6241C33.6649 15.6241 34.0063 15.5335 34.2943 15.3521C34.5929 15.1708 34.8223 14.8935 34.9823 14.5201C35.1529 14.1361 35.2383 13.6508 35.2383 13.0641C35.2383 12.4561 35.1529 11.9655 34.9823 11.5921C34.8223 11.2188 34.5929 10.9415 34.2943 10.7601C34.0063 10.5788 33.6649 10.4881 33.2703 10.4881C32.8969 10.4881 32.5609 10.5788 32.2623 10.7601C31.9636 10.9415 31.7289 11.2188 31.5583 11.5921C31.3983 11.9655 31.3183 12.4561 31.3183 13.0641C31.3183 13.6508 31.3983 14.1361 31.5583 14.5201C31.7289 14.8935 31.9636 15.1708 32.2623 15.3521C32.5609 15.5335 32.8969 15.6241 33.2703 15.6241Z" fill="black"/>
</svg>
